<svg id="Capa_1" enable-background="new 0 0 512.048 512.048" height="512" viewBox="0 0 512.048 512.048" width="512" xmlns="http://www.w3.org/2000/svg" xmlns:xlink="http://www.w3.org/1999/xlink"><linearGradient id="SVGID_1_" gradientUnits="userSpaceOnUse" x1="60.123" x2="452.31" y1="452.174" y2="59.987"><stop offset="0" stop-color="#ffc2cc"/><stop offset="1" stop-color="#fff2f4"/></linearGradient><linearGradient id="SVGID_2_" gradientUnits="userSpaceOnUse" x1="256.024" x2="256.024" y1="512.024" y2=".024"><stop offset="0" stop-color="#fd3a84"/><stop offset="1" stop-color="#ffa68d"/></linearGradient><g id="Pencil_1_"><path d="m454.473 163.724-307.5 307.5h-.3l-86.701-19.201-18.9-86.699 307.5-307.5 103.4 1.825z" fill="url(#SVGID_1_)"/><g><g><path d="m498.772 55.449-42.599-42.599c-16.8-17.1-46.5-17.1-63.3 0l-44.301 44.974 105.901 105.901 44.299-44.976c17.701-17.4 17.701-45.9 0-63.3zm-458 309.875c-1.8 1.8-3.3 3.9-3.9 6.301l-36.299 121.199c-1.501 5.099 0 10.8 3.9 14.7 2.699 3.001 6.599 4.501 10.499 4.501 1.5 0 2.999-.3 4.2-.601l121.199-36.301c2.401-.599 4.501-2.098 6.301-3.898l-105.6-105.901zm296.935-212.231-148.506 148.492c-5.859 5.859-5.859 15.352 0 21.211 2.93 2.93 6.768 4.395 10.605 4.395s7.676-1.465 10.605-4.395l148.506-148.491c5.859-5.859 5.859-15.352 0-21.211s-15.351-5.86-21.21-.001z" fill="url(#SVGID_2_)"/></g></g></g></svg>